<svg width="1920" height="1080" xmlns="http://www.w3.org/2000/svg" xmlns:xlink="http://www.w3.org/1999/xlink" overflow="hidden"><defs><filter id="fx0" x="-10%" y="-10%" width="120%" height="120%" filterUnits="userSpaceOnUse" primitiveUnits="userSpaceOnUse"><feComponentTransfer color-interpolation-filters="sRGB"><feFuncR type="discrete" tableValues="0.74902 0.74902"/><feFuncG type="discrete" tableValues="0.74902 0.74902"/><feFuncB type="discrete" tableValues="0.74902 0.74902"/><feFuncA type="linear" slope="0.509804" intercept="0"/></feComponentTransfer><feGaussianBlur stdDeviation="6.66667 6.66667"/></filter><filter id="fx1" x="-10%" y="-10%" width="120%" height="120%" filterUnits="userSpaceOnUse" primitiveUnits="userSpaceOnUse"><feComponentTransfer color-interpolation-filters="sRGB"><feFuncR type="discrete" tableValues="0.74902 0.74902"/><feFuncG type="discrete" tableValues="0.74902 0.74902"/><feFuncB type="discrete" tableValues="0.74902 0.74902"/><feFuncA type="linear" slope="0.509804" intercept="0"/></feComponentTransfer><feGaussianBlur stdDeviation="6.66667 6.66667"/></filter><filter id="fx2" x="-10%" y="-10%" width="120%" height="120%" filterUnits="userSpaceOnUse" primitiveUnits="userSpaceOnUse"><feComponentTransfer color-interpolation-filters="sRGB"><feFuncR type="discrete" tableValues="0.74902 0.74902"/><feFuncG type="discrete" tableValues="0.74902 0.74902"/><feFuncB type="discrete" tableValues="0.74902 0.74902"/><feFuncA type="linear" slope="0.509804" intercept="0"/></feComponentTransfer><feGaussianBlur stdDeviation="6.66667 6.66667"/></filter><filter id="fx3" x="-10%" y="-10%" width="120%" height="120%" filterUnits="userSpaceOnUse" primitiveUnits="userSpaceOnUse"><feComponentTransfer color-interpolation-filters="sRGB"><feFuncR type="discrete" tableValues="0.74902 0.74902"/><feFuncG type="discrete" tableValues="0.74902 0.74902"/><feFuncB type="discrete" tableValues="0.74902 0.74902"/><feFuncA type="linear" slope="0.509804" intercept="0"/></feComponentTransfer><feGaussianBlur stdDeviation="6.66667 6.66667"/></filter><filter id="fx4" x="-10%" y="-10%" width="120%" height="120%" filterUnits="userSpaceOnUse" primitiveUnits="userSpaceOnUse"><feComponentTransfer color-interpolation-filters="sRGB"><feFuncR type="discrete" tableValues="0.74902 0.74902"/><feFuncG type="discrete" tableValues="0.74902 0.74902"/><feFuncB type="discrete" tableValues="0.74902 0.74902"/><feFuncA type="linear" slope="0.509804" intercept="0"/></feComponentTransfer><feGaussianBlur stdDeviation="6.66667 6.66667"/></filter><filter id="fx5" x="-10%" y="-10%" width="120%" height="120%" filterUnits="userSpaceOnUse" primitiveUnits="userSpaceOnUse"><feComponentTransfer color-interpolation-filters="sRGB"><feFuncR type="discrete" tableValues="0.74902 0.74902"/><feFuncG type="discrete" tableValues="0.74902 0.74902"/><feFuncB type="discrete" tableValues="0.74902 0.74902"/><feFuncA type="linear" slope="0.509804" intercept="0"/></feComponentTransfer><feGaussianBlur stdDeviation="6.66667 6.66667"/></filter><filter id="fx6" x="-10%" y="-10%" width="120%" height="120%" filterUnits="userSpaceOnUse" primitiveUnits="userSpaceOnUse"><feComponentTransfer color-interpolation-filters="sRGB"><feFuncR type="discrete" tableValues="0.74902 0.74902"/><feFuncG type="discrete" tableValues="0.74902 0.74902"/><feFuncB type="discrete" tableValues="0.74902 0.74902"/><feFuncA type="linear" slope="0.509804" intercept="0"/></feComponentTransfer><feGaussianBlur stdDeviation="6.66667 6.66667"/></filter><filter id="fx7" x="-10%" y="-10%" width="120%" height="120%" filterUnits="userSpaceOnUse" primitiveUnits="userSpaceOnUse"><feComponentTransfer color-interpolation-filters="sRGB"><feFuncR type="discrete" tableValues="0.74902 0.74902"/><feFuncG type="discrete" tableValues="0.74902 0.74902"/><feFuncB type="discrete" tableValues="0.74902 0.74902"/><feFuncA type="linear" slope="0.509804" intercept="0"/></feComponentTransfer><feGaussianBlur stdDeviation="6.66667 6.66667"/></filter><filter id="fx8" x="-10%" y="-10%" width="120%" height="120%" filterUnits="userSpaceOnUse" primitiveUnits="userSpaceOnUse"><feComponentTransfer color-interpolation-filters="sRGB"><feFuncR type="discrete" tableValues="0.74902 0.74902"/><feFuncG type="discrete" tableValues="0.74902 0.74902"/><feFuncB type="discrete" tableValues="0.74902 0.74902"/><feFuncA type="linear" slope="0.509804" intercept="0"/></feComponentTransfer><feGaussianBlur stdDeviation="6.66667 6.66667"/></filter><filter id="fx9" x="-10%" y="-10%" width="120%" height="120%" filterUnits="userSpaceOnUse" primitiveUnits="userSpaceOnUse"><feComponentTransfer color-interpolation-filters="sRGB"><feFuncR type="discrete" tableValues="0.74902 0.74902"/><feFuncG type="discrete" tableValues="0.74902 0.74902"/><feFuncB type="discrete" tableValues="0.74902 0.74902"/><feFuncA type="linear" slope="0.509804" intercept="0"/></feComponentTransfer><feGaussianBlur stdDeviation="6.66667 6.66667"/></filter><filter id="fx10" x="-10%" y="-10%" width="120%" height="120%" filterUnits="userSpaceOnUse" primitiveUnits="userSpaceOnUse"><feComponentTransfer color-interpolation-filters="sRGB"><feFuncR type="discrete" tableValues="0.74902 0.74902"/><feFuncG type="discrete" tableValues="0.74902 0.74902"/><feFuncB type="discrete" tableValues="0.74902 0.74902"/><feFuncA type="linear" slope="0.509804" intercept="0"/></feComponentTransfer><feGaussianBlur stdDeviation="6.66667 6.66667"/></filter><filter id="fx11" x="-10%" y="-10%" width="120%" height="120%" filterUnits="userSpaceOnUse" primitiveUnits="userSpaceOnUse"><feComponentTransfer color-interpolation-filters="sRGB"><feFuncR type="discrete" tableValues="0.74902 0.74902"/><feFuncG type="discrete" tableValues="0.74902 0.74902"/><feFuncB type="discrete" tableValues="0.74902 0.74902"/><feFuncA type="linear" slope="0.509804" intercept="0"/></feComponentTransfer><feGaussianBlur stdDeviation="6.66667 6.66667"/></filter><filter id="fx12" x="-10%" y="-10%" width="120%" height="120%" filterUnits="userSpaceOnUse" primitiveUnits="userSpaceOnUse"><feComponentTransfer color-interpolation-filters="sRGB"><feFuncR type="discrete" tableValues="0.74902 0.74902"/><feFuncG type="discrete" tableValues="0.74902 0.74902"/><feFuncB type="discrete" tableValues="0.74902 0.74902"/><feFuncA type="linear" slope="0.509804" intercept="0"/></feComponentTransfer><feGaussianBlur stdDeviation="6.66667 6.66667"/></filter><filter id="fx13" x="-10%" y="-10%" width="120%" height="120%" filterUnits="userSpaceOnUse" primitiveUnits="userSpaceOnUse"><feComponentTransfer color-interpolation-filters="sRGB"><feFuncR type="discrete" tableValues="0.74902 0.74902"/><feFuncG type="discrete" tableValues="0.74902 0.74902"/><feFuncB type="discrete" tableValues="0.74902 0.74902"/><feFuncA type="linear" slope="0.509804" intercept="0"/></feComponentTransfer><feGaussianBlur stdDeviation="6.66667 6.66667"/></filter><clipPath id="clip14"><rect x="0" y="0" width="1920" height="1080"/></clipPath><linearGradient x1="518.25" y1="171.75" x2="1102.75" y2="756.25" gradientUnits="userSpaceOnUse" spreadMethod="reflect" id="fill15"><stop offset="0" stop-color="#EDEEF3"/><stop offset="0.15" stop-color="#FFFFFF"/><stop offset="0.335" stop-color="#FFFFFF"/><stop offset="0.4" stop-color="#FFFFFF"/><stop offset="0.5025" stop-color="#FFFFFF"/><stop offset="0.65953" stop-color="#FFFFFF"/><stop offset="0.67" stop-color="#FFFFFF"/><stop offset="0.83" stop-color="#FFFFFF"/><stop offset="0.83" stop-color="#FFFFFF"/><stop offset="1" stop-color="#FFFFFF"/></linearGradient><linearGradient x1="604.25" y1="587.75" x2="1168.75" y2="1152.25" gradientUnits="userSpaceOnUse" spreadMethod="reflect" id="fill16"><stop offset="0" stop-color="#EDEEF3"/><stop offset="0.15" stop-color="#FFFFFF"/><stop offset="0.335" stop-color="#FFFFFF"/><stop offset="0.4" stop-color="#FFFFFF"/><stop offset="0.5025" stop-color="#FFFFFF"/><stop offset="0.65953" stop-color="#FFFFFF"/><stop offset="0.67" stop-color="#FFFFFF"/><stop offset="0.83" stop-color="#FFFFFF"/><stop offset="0.83" stop-color="#FFFFFF"/><stop offset="1" stop-color="#FFFFFF"/></linearGradient><linearGradient x1="41.75" y1="103.25" x2="243.25" y2="304.75" gradientUnits="userSpaceOnUse" spreadMethod="reflect" id="fill17"><stop offset="0" stop-color="#EDEEF3"/><stop offset="0.15" stop-color="#FFFFFF"/><stop offset="0.335" stop-color="#FFFFFF"/><stop offset="0.4" stop-color="#FFFFFF"/><stop offset="0.5025" stop-color="#FFFFFF"/><stop offset="0.65953" stop-color="#FFFFFF"/><stop offset="0.67" stop-color="#FFFFFF"/><stop offset="0.83" stop-color="#FFFFFF"/><stop offset="0.83" stop-color="#FFFFFF"/><stop offset="1" stop-color="#FFFFFF"/></linearGradient><linearGradient x1="22.5" y1="278.5" x2="396.5" y2="652.5" gradientUnits="userSpaceOnUse" spreadMethod="reflect" id="fill18"><stop offset="0" stop-color="#EDEEF3"/><stop offset="0.15" stop-color="#FFFFFF"/><stop offset="0.335" stop-color="#FFFFFF"/><stop offset="0.4" stop-color="#FFFFFF"/><stop offset="0.5025" stop-color="#FFFFFF"/><stop offset="0.65953" stop-color="#FFFFFF"/><stop offset="0.67" stop-color="#FFFFFF"/><stop offset="0.83" stop-color="#FFFFFF"/><stop offset="0.83" stop-color="#FFFFFF"/><stop offset="1" stop-color="#FFFFFF"/></linearGradient><linearGradient x1="47.5" y1="632.5" x2="519.5" y2="1104.5" gradientUnits="userSpaceOnUse" spreadMethod="reflect" id="fill19"><stop offset="0" stop-color="#EDEEF3"/><stop offset="0.15" stop-color="#FFFFFF"/><stop offset="0.335" stop-color="#FFFFFF"/><stop offset="0.4" stop-color="#FFFFFF"/><stop offset="0.5025" stop-color="#FFFFFF"/><stop offset="0.65953" stop-color="#FFFFFF"/><stop offset="0.67" stop-color="#FFFFFF"/><stop offset="0.83" stop-color="#FFFFFF"/><stop offset="0.83" stop-color="#FFFFFF"/><stop offset="1" stop-color="#FFFFFF"/></linearGradient><linearGradient x1="1304.75" y1="206.25" x2="1820.25" y2="721.75" gradientUnits="userSpaceOnUse" spreadMethod="reflect" id="fill20"><stop offset="0" stop-color="#EDEEF3"/><stop offset="0.15" stop-color="#FFFFFF"/><stop offset="0.335" stop-color="#FFFFFF"/><stop offset="0.4" stop-color="#FFFFFF"/><stop offset="0.5025" stop-color="#FFFFFF"/><stop offset="0.65953" stop-color="#FFFFFF"/><stop offset="0.67" stop-color="#FFFFFF"/><stop offset="0.83" stop-color="#FFFFFF"/><stop offset="0.83" stop-color="#FFFFFF"/><stop offset="1" stop-color="#FFFFFF"/></linearGradient><linearGradient x1="1308" y1="601" x2="1841" y2="1134" gradientUnits="userSpaceOnUse" spreadMethod="reflect" id="fill21"><stop offset="0" stop-color="#EDEEF3"/><stop offset="0.15" stop-color="#FFFFFF"/><stop offset="0.335" stop-color="#FFFFFF"/><stop offset="0.4" stop-color="#FFFFFF"/><stop offset="0.5025" stop-color="#FFFFFF"/><stop offset="0.65953" stop-color="#FFFFFF"/><stop offset="0.67" stop-color="#FFFFFF"/><stop offset="0.83" stop-color="#FFFFFF"/><stop offset="0.83" stop-color="#FFFFFF"/><stop offset="1" stop-color="#FFFFFF"/></linearGradient><linearGradient x1="856.25" y1="94.75" x2="1063.75" y2="302.25" gradientUnits="userSpaceOnUse" spreadMethod="reflect" id="fill22"><stop offset="0" stop-color="#EDEEF3"/><stop offset="0.15" stop-color="#FFFFFF"/><stop offset="0.335" stop-color="#FFFFFF"/><stop offset="0.4" stop-color="#FFFFFF"/><stop offset="0.5025" stop-color="#FFFFFF"/><stop offset="0.65953" stop-color="#FFFFFF"/><stop offset="0.67" stop-color="#FFFFFF"/><stop offset="0.83" stop-color="#FFFFFF"/><stop offset="0.83" stop-color="#FFFFFF"/><stop offset="1" stop-color="#FFFFFF"/></linearGradient><linearGradient x1="1129" y1="90" x2="1336" y2="297" gradientUnits="userSpaceOnUse" spreadMethod="reflect" id="fill23"><stop offset="0" stop-color="#EDEEF3"/><stop offset="0.15" stop-color="#FFFFFF"/><stop offset="0.335" stop-color="#FFFFFF"/><stop offset="0.4" stop-color="#FFFFFF"/><stop offset="0.5025" stop-color="#FFFFFF"/><stop offset="0.65953" stop-color="#FFFFFF"/><stop offset="0.67" stop-color="#FFFFFF"/><stop offset="0.83" stop-color="#FFFFFF"/><stop offset="0.83" stop-color="#FFFFFF"/><stop offset="1" stop-color="#FFFFFF"/></linearGradient><linearGradient x1="1401.25" y1="89.75" x2="1608.75" y2="297.25" gradientUnits="userSpaceOnUse" spreadMethod="reflect" id="fill24"><stop offset="0" stop-color="#EDEEF3"/><stop offset="0.15" stop-color="#FFFFFF"/><stop offset="0.335" stop-color="#FFFFFF"/><stop offset="0.4" stop-color="#FFFFFF"/><stop offset="0.5025" stop-color="#FFFFFF"/><stop offset="0.65953" stop-color="#FFFFFF"/><stop offset="0.67" stop-color="#FFFFFF"/><stop offset="0.83" stop-color="#FFFFFF"/><stop offset="0.83" stop-color="#FFFFFF"/><stop offset="1" stop-color="#FFFFFF"/></linearGradient><linearGradient x1="1674" y1="90" x2="1881" y2="297" gradientUnits="userSpaceOnUse" spreadMethod="reflect" id="fill25"><stop offset="0" stop-color="#EDEEF3"/><stop offset="0.15" stop-color="#FFFFFF"/><stop offset="0.335" stop-color="#FFFFFF"/><stop offset="0.4" stop-color="#FFFFFF"/><stop offset="0.5025" stop-color="#FFFFFF"/><stop offset="0.65953" stop-color="#FFFFFF"/><stop offset="0.67" stop-color="#FFFFFF"/><stop offset="0.83" stop-color="#FFFFFF"/><stop offset="0.83" stop-color="#FFFFFF"/><stop offset="1" stop-color="#FFFFFF"/></linearGradient><linearGradient x1="311.25" y1="94.75" x2="518.75" y2="302.25" gradientUnits="userSpaceOnUse" spreadMethod="reflect" id="fill26"><stop offset="0" stop-color="#EDEEF3"/><stop offset="0.15" stop-color="#FFFFFF"/><stop offset="0.335" stop-color="#FFFFFF"/><stop offset="0.4" stop-color="#FFFFFF"/><stop offset="0.5025" stop-color="#FFFFFF"/><stop offset="0.65953" stop-color="#FFFFFF"/><stop offset="0.67" stop-color="#FFFFFF"/><stop offset="0.83" stop-color="#FFFFFF"/><stop offset="0.83" stop-color="#FFFFFF"/><stop offset="1" stop-color="#FFFFFF"/></linearGradient><linearGradient x1="584" y1="95" x2="791" y2="302" gradientUnits="userSpaceOnUse" spreadMethod="reflect" id="fill27"><stop offset="0" stop-color="#EDEEF3"/><stop offset="0.15" stop-color="#FFFFFF"/><stop offset="0.335" stop-color="#FFFFFF"/><stop offset="0.4" stop-color="#FFFFFF"/><stop offset="0.5025" stop-color="#FFFFFF"/><stop offset="0.65953" stop-color="#FFFFFF"/><stop offset="0.67" stop-color="#FFFFFF"/><stop offset="0.83" stop-color="#FFFFFF"/><stop offset="0.83" stop-color="#FFFFFF"/><stop offset="1" stop-color="#FFFFFF"/></linearGradient><radialGradient cx="9143999" cy="514350" r="9158455" fx="9144000" fy="-822960" gradientUnits="userSpaceOnUse" spreadMethod="pad" id="fill28" gradientTransform="matrix(0.000104987 0 0 0.000104987 0 3)"><stop offset="0" stop-color="#FFFFFF"/><stop offset="0.35" stop-color="#FFFFFF"/><stop offset="1" stop-color="#0F9ED5"/></radialGradient></defs><g clip-path="url(#clip14)"><rect x="0" y="0" width="1920" height="1080" fill="#FFFFFF"/><path d="M20 53.2267C20 33.2192 36.2192 17 56.2266 17L1863.77 17C1883.78 17 1900 33.2192 1900 53.2267L1900 1024.77C1900 1044.78 1883.78 1061 1863.77 1061L56.2266 1061C36.2192 1061 20 1044.78 20 1024.77Z" fill="#F4F4F7" fill-rule="evenodd"/><g filter="url(#fx0)" transform="translate(397 279)"><g><path d="M21.1422 41.6548C21.1422 30.326 30.326 21.1422 41.6548 21.1422L813.63 21.1422C824.958 21.1422 834.142 30.326 834.142 41.6548L834.142 356.63C834.142 367.958 824.958 377.142 813.63 377.142L41.6548 377.142C30.326 377.142 21.1422 367.958 21.1422 356.63Z" fill="#FF0000" fill-rule="evenodd"/></g></g><path d="M404 306.513C404 295.184 413.184 286 424.513 286L1196.49 286C1207.82 286 1217 295.184 1217 306.513L1217 621.487C1217 632.816 1207.82 642 1196.49 642L424.513 642C413.184 642 404 632.816 404 621.487Z" fill="url(#fill15)" fill-rule="evenodd"/><g filter="url(#fx1)" transform="translate(525 653)"><g><path d="M21.1422 68.4003C21.1422 42.3004 42.3003 21.1422 68.4003 21.1422L682.884 21.1422C708.984 21.1422 730.142 42.3004 730.142 68.4003L730.142 393.884C730.142 419.984 708.984 441.142 682.884 441.142L68.4003 441.142C42.3003 441.142 21.1422 419.984 21.1422 393.884Z" fill="#FF0000" fill-rule="evenodd"/></g></g><path d="M532 707.258C532 681.158 553.158 660 579.258 660L1193.74 660C1219.84 660 1241 681.158 1241 707.258L1241 1032.74C1241 1058.84 1219.84 1080 1193.74 1080L579.258 1080C553.158 1080 532 1058.84 532 1032.74Z" fill="url(#fill16)" fill-rule="evenodd"/><g filter="url(#fx2)" transform="translate(6 125)"><g><path d="M21.1421 27.3818C21.1421 23.9357 23.9357 21.1421 27.3818 21.1421L273.903 21.1421C277.349 21.1421 280.142 23.9357 280.142 27.3818L280.142 158.902C280.142 162.349 277.349 165.142 273.903 165.142L27.3818 165.142C23.9357 165.142 21.1421 162.349 21.1421 158.902Z" fill="#FF0000" fill-rule="evenodd"/></g></g><path d="M13 138.24C13 134.794 15.7936 132 19.2396 132L265.76 132C269.206 132 272 134.794 272 138.24L272 269.76C272 273.206 269.206 276 265.76 276L19.2396 276C15.7936 276 13 273.206 13 269.76Z" fill="url(#fill17)" fill-rule="evenodd"/><g filter="url(#fx3)" transform="translate(8 279)"><g><path d="M21.1421 36.6975C21.1421 28.1065 28.1065 21.1422 36.6975 21.1422L394.587 21.1422C403.178 21.1422 410.142 28.1065 410.142 36.6975L410.142 364.587C410.142 373.178 403.178 380.142 394.587 380.142L36.6975 380.142C28.1065 380.142 21.1421 373.178 21.1421 364.587Z" fill="#FF0000" fill-rule="evenodd"/></g></g><path d="M15 301.555C15 292.964 21.9644 286 30.5553 286L388.445 286C397.036 286 404 292.964 404 301.555L404 629.445C404 638.036 397.036 645 388.445 645L30.5553 645C21.9644 645 15 638.036 15 629.445Z" fill="url(#fill18)" fill-rule="evenodd"/><g filter="url(#fx4)" transform="translate(13 653)"><g><path d="M21.1421 39.2108C21.1421 29.2318 29.2317 21.1422 39.2108 21.1422L530.073 21.1422C540.053 21.1422 548.142 29.2318 548.142 39.2108L548.142 420.073C548.142 430.053 540.053 438.142 530.073 438.142L39.2108 438.142C29.2317 438.142 21.1421 430.053 21.1421 420.073Z" fill="#FF0000" fill-rule="evenodd"/></g></g><path d="M20 678.069C20 668.09 28.0896 660 38.0687 660L528.931 660C538.91 660 547 668.09 547 678.069L547 1058.93C547 1068.91 538.91 1077 528.931 1077L38.0687 1077C28.0896 1077 20 1068.91 20 1058.93Z" fill="url(#fill19)" fill-rule="evenodd"/><g filter="url(#fx5)" transform="translate(1218 279)"><g><path d="M21.1421 36.5674C21.1421 28.0483 28.0482 21.1422 36.5673 21.1422L680.717 21.1422C689.236 21.1422 696.142 28.0483 696.142 36.5674L696.142 361.717C696.142 370.236 689.236 377.142 680.717 377.142L36.5673 377.142C28.0482 377.142 21.1421 370.236 21.1421 361.717Z" fill="#FF0000" fill-rule="evenodd"/></g></g><path d="M1225 301.425C1225 292.906 1231.91 286 1240.43 286L1884.57 286C1893.09 286 1900 292.906 1900 301.425L1900 626.575C1900 635.094 1893.09 642 1884.57 642L1240.43 642C1231.91 642 1225 635.094 1225 626.575Z" fill="url(#fill20)" fill-rule="evenodd"/><g filter="url(#fx6)" transform="translate(1242 653)"><g><path d="M21.1421 67.8378C21.1421 42.0485 42.0484 21.1422 67.8377 21.1422L625.446 21.1422C651.236 21.1422 672.142 42.0485 672.142 67.8378L672.142 389.447C672.142 415.236 651.236 436.142 625.446 436.142L67.8377 436.142C42.0484 436.142 21.1421 415.236 21.1421 389.447Z" fill="#FF0000" fill-rule="evenodd"/></g></g><path d="M1249 706.696C1249 680.906 1269.91 660 1295.7 660L1853.3 660C1879.09 660 1900 680.906 1900 706.696L1900 1028.3C1900 1054.09 1879.09 1075 1853.3 1075L1295.7 1075C1269.91 1075 1249 1054.09 1249 1028.3Z" fill="url(#fill21)" fill-rule="evenodd"/><g filter="url(#fx7)" transform="translate(823 114)"><g><path d="M21.1422 27.8582C21.1422 24.149 24.149 21.1421 27.8582 21.1421L274.426 21.1421C278.135 21.1421 281.142 24.149 281.142 27.8582L281.142 169.426C281.142 173.135 278.135 176.142 274.426 176.142L27.8582 176.142C24.149 176.142 21.1422 173.135 21.1422 169.426Z" fill="#FF0000" fill-rule="evenodd"/></g></g><path d="M830 127.716C830 124.007 833.007 121 836.716 121L1083.28 121C1086.99 121 1090 124.007 1090 127.716L1090 269.284C1090 272.993 1086.99 276 1083.28 276L836.716 276C833.007 276 830 272.993 830 269.284Z" fill="url(#fill22)" fill-rule="evenodd"/><g filter="url(#fx8)" transform="translate(1096 109)"><g><path d="M21.1421 27.8582C21.1421 24.149 24.149 21.1421 27.8581 21.1421L273.426 21.1421C277.135 21.1421 280.142 24.149 280.142 27.8582L280.142 169.426C280.142 173.135 277.135 176.142 273.426 176.142L27.8581 176.142C24.149 176.142 21.1421 173.135 21.1421 169.426Z" fill="#FF0000" fill-rule="evenodd"/></g></g><path d="M1103 122.716C1103 119.007 1106.01 116 1109.72 116L1355.28 116C1358.99 116 1362 119.007 1362 122.716L1362 264.284C1362 267.993 1358.99 271 1355.28 271L1109.72 271C1106.01 271 1103 267.993 1103 264.284Z" fill="url(#fill23)" fill-rule="evenodd"/><g filter="url(#fx9)" transform="translate(1368 109)"><g><path d="M21.1421 27.8582C21.1421 24.149 24.149 21.1421 27.8582 21.1421L274.426 21.1421C278.135 21.1421 281.142 24.149 281.142 27.8582L281.142 169.426C281.142 173.135 278.135 176.142 274.426 176.142L27.8582 176.142C24.149 176.142 21.1421 173.135 21.1421 169.426Z" fill="#FF0000" fill-rule="evenodd"/></g></g><path d="M1375 122.716C1375 119.007 1378.01 116 1381.72 116L1628.28 116C1631.99 116 1635 119.007 1635 122.716L1635 264.284C1635 267.993 1631.99 271 1628.28 271L1381.72 271C1378.01 271 1375 267.993 1375 264.284Z" fill="url(#fill24)" fill-rule="evenodd"/><g filter="url(#fx10)" transform="translate(1641 109)"><g><path d="M21.1421 27.8582C21.1421 24.149 24.149 21.1421 27.8581 21.1421L273.426 21.1421C277.135 21.1421 280.142 24.149 280.142 27.8582L280.142 169.426C280.142 173.135 277.135 176.142 273.426 176.142L27.8581 176.142C24.149 176.142 21.1421 173.135 21.1421 169.426Z" fill="#FF0000" fill-rule="evenodd"/></g></g><path d="M1648 122.716C1648 119.007 1651.01 116 1654.72 116L1900.28 116C1903.99 116 1907 119.007 1907 122.716L1907 264.284C1907 267.993 1903.99 271 1900.28 271L1654.72 271C1651.01 271 1648 267.993 1648 264.284Z" fill="url(#fill25)" fill-rule="evenodd"/><g filter="url(#fx11)" transform="translate(278 114)"><g><path d="M21.1422 27.8582C21.1422 24.149 24.149 21.1421 27.8582 21.1421L274.426 21.1421C278.135 21.1421 281.142 24.149 281.142 27.8582L281.142 169.426C281.142 173.135 278.135 176.142 274.426 176.142L27.8582 176.142C24.149 176.142 21.1422 173.135 21.1422 169.426Z" fill="#FF0000" fill-rule="evenodd"/></g></g><path d="M285 127.716C285 124.007 288.007 121 291.716 121L538.284 121C541.993 121 545 124.007 545 127.716L545 269.284C545 272.993 541.993 276 538.284 276L291.716 276C288.007 276 285 272.993 285 269.284Z" fill="url(#fill26)" fill-rule="evenodd"/><g filter="url(#fx12)" transform="translate(551 114)"><g><path d="M21.1422 27.8582C21.1422 24.149 24.149 21.1421 27.8582 21.1421L273.426 21.1421C277.135 21.1421 280.142 24.149 280.142 27.8582L280.142 169.426C280.142 173.135 277.135 176.142 273.426 176.142L27.8582 176.142C24.149 176.142 21.1422 173.135 21.1422 169.426Z" fill="#FF0000" fill-rule="evenodd"/></g></g><path d="M558 127.716C558 124.007 561.007 121 564.716 121L810.284 121C813.993 121 817 124.007 817 127.716L817 269.284C817 272.993 813.993 276 810.284 276L564.716 276C561.007 276 558 272.993 558 269.284Z" fill="url(#fill27)" fill-rule="evenodd"/><g filter="url(#fx13)" transform="translate(-7 -4)"><g><path d="M21.1421 25.8225C21.1421 23.2376 23.2376 21.1421 25.8225 21.1421L1936.46 21.1421C1939.05 21.1421 1941.14 23.2376 1941.14 25.8225L1941.14 124.462C1941.14 127.047 1939.05 129.142 1936.46 129.142L25.8225 129.142C23.2376 129.142 21.1421 127.047 21.1421 124.462Z" fill="#FF0000" fill-rule="evenodd"/></g></g><path d="M0 7.68041C-9.5485e-16 5.09549 2.09545 3 4.68032 3L1915.32 3C1917.9 3 1920 5.09549 1920 7.68041L1920 106.32C1920 108.905 1917.9 111 1915.32 111L4.68032 111C2.09545 111 0 108.905 0 106.32Z" fill="url(#fill28)" fill-rule="evenodd"/></g></svg>