<svg width="1920" height="1080" xmlns="http://www.w3.org/2000/svg" xmlns:xlink="http://www.w3.org/1999/xlink" overflow="hidden"><defs><filter id="fx0" x="-10%" y="-10%" width="120%" height="120%" filterUnits="userSpaceOnUse" primitiveUnits="userSpaceOnUse"><feComponentTransfer color-interpolation-filters="sRGB"><feFuncR type="discrete" tableValues="0.74902 0.74902"/><feFuncG type="discrete" tableValues="0.74902 0.74902"/><feFuncB type="discrete" tableValues="0.74902 0.74902"/><feFuncA type="linear" slope="0.509804" intercept="0"/></feComponentTransfer><feGaussianBlur stdDeviation="6.66667 6.66667"/></filter><filter id="fx1" x="-10%" y="-10%" width="120%" height="120%" filterUnits="userSpaceOnUse" primitiveUnits="userSpaceOnUse"><feComponentTransfer color-interpolation-filters="sRGB"><feFuncR type="discrete" tableValues="0.74902 0.74902"/><feFuncG type="discrete" tableValues="0.74902 0.74902"/><feFuncB type="discrete" tableValues="0.74902 0.74902"/><feFuncA type="linear" slope="0.509804" intercept="0"/></feComponentTransfer><feGaussianBlur stdDeviation="6.66667 6.66667"/></filter><filter id="fx2" x="-10%" y="-10%" width="120%" height="120%" filterUnits="userSpaceOnUse" primitiveUnits="userSpaceOnUse"><feComponentTransfer color-interpolation-filters="sRGB"><feFuncR type="discrete" tableValues="0.74902 0.74902"/><feFuncG type="discrete" tableValues="0.74902 0.74902"/><feFuncB type="discrete" tableValues="0.74902 0.74902"/><feFuncA type="linear" slope="0.509804" intercept="0"/></feComponentTransfer><feGaussianBlur stdDeviation="6.66667 6.66667"/></filter><filter id="fx3" x="-10%" y="-10%" width="120%" height="120%" filterUnits="userSpaceOnUse" primitiveUnits="userSpaceOnUse"><feComponentTransfer color-interpolation-filters="sRGB"><feFuncR type="discrete" tableValues="0.74902 0.74902"/><feFuncG type="discrete" tableValues="0.74902 0.74902"/><feFuncB type="discrete" tableValues="0.74902 0.74902"/><feFuncA type="linear" slope="0.509804" intercept="0"/></feComponentTransfer><feGaussianBlur stdDeviation="6.66667 6.66667"/></filter><filter id="fx4" x="-10%" y="-10%" width="120%" height="120%" filterUnits="userSpaceOnUse" primitiveUnits="userSpaceOnUse"><feComponentTransfer color-interpolation-filters="sRGB"><feFuncR type="discrete" tableValues="0.74902 0.74902"/><feFuncG type="discrete" tableValues="0.74902 0.74902"/><feFuncB type="discrete" tableValues="0.74902 0.74902"/><feFuncA type="linear" slope="0.509804" intercept="0"/></feComponentTransfer><feGaussianBlur stdDeviation="6.66667 6.66667"/></filter><filter id="fx5" x="-10%" y="-10%" width="120%" height="120%" filterUnits="userSpaceOnUse" primitiveUnits="userSpaceOnUse"><feComponentTransfer color-interpolation-filters="sRGB"><feFuncR type="discrete" tableValues="0.74902 0.74902"/><feFuncG type="discrete" tableValues="0.74902 0.74902"/><feFuncB type="discrete" tableValues="0.74902 0.74902"/><feFuncA type="linear" slope="0.509804" intercept="0"/></feComponentTransfer><feGaussianBlur stdDeviation="6.66667 6.66667"/></filter><clipPath id="clip6"><rect x="0" y="0" width="1920" height="1080"/></clipPath><linearGradient x1="410.5" y1="460.5" x2="1059.5" y2="1109.5" gradientUnits="userSpaceOnUse" spreadMethod="reflect" id="fill7"><stop offset="0" stop-color="#EDEEF3"/><stop offset="0.15" stop-color="#FFFFFF"/><stop offset="0.335" stop-color="#FFFFFF"/><stop offset="0.4" stop-color="#FFFFFF"/><stop offset="0.5025" stop-color="#FFFFFF"/><stop offset="0.65953" stop-color="#FFFFFF"/><stop offset="0.67" stop-color="#FFFFFF"/><stop offset="0.83" stop-color="#FFFFFF"/><stop offset="0.83" stop-color="#FFFFFF"/><stop offset="1" stop-color="#FFFFFF"/></linearGradient><linearGradient x1="1219" y1="472" x2="1845" y2="1098" gradientUnits="userSpaceOnUse" spreadMethod="reflect" id="fill8"><stop offset="0" stop-color="#EDEEF3"/><stop offset="0.15" stop-color="#FFFFFF"/><stop offset="0.335" stop-color="#FFFFFF"/><stop offset="0.4" stop-color="#FFFFFF"/><stop offset="0.5025" stop-color="#FFFFFF"/><stop offset="0.65953" stop-color="#FFFFFF"/><stop offset="0.67" stop-color="#FFFFFF"/><stop offset="0.83" stop-color="#FFFFFF"/><stop offset="0.83" stop-color="#FFFFFF"/><stop offset="1" stop-color="#FFFFFF"/></linearGradient><linearGradient x1="367.5" y1="16.5" x2="856.5" y2="505.5" gradientUnits="userSpaceOnUse" spreadMethod="reflect" id="fill9"><stop offset="0" stop-color="#EDEEF3"/><stop offset="0.15" stop-color="#FFFFFF"/><stop offset="0.335" stop-color="#FFFFFF"/><stop offset="0.4" stop-color="#FFFFFF"/><stop offset="0.5025" stop-color="#FFFFFF"/><stop offset="0.65953" stop-color="#FFFFFF"/><stop offset="0.67" stop-color="#FFFFFF"/><stop offset="0.83" stop-color="#FFFFFF"/><stop offset="0.83" stop-color="#FFFFFF"/><stop offset="1" stop-color="#FFFFFF"/></linearGradient><linearGradient x1="-173" y1="192" x2="519" y2="884" gradientUnits="userSpaceOnUse" spreadMethod="reflect" id="fill10"><stop offset="0" stop-color="#EDEEF3"/><stop offset="0.15" stop-color="#FFFFFF"/><stop offset="0.335" stop-color="#FFFFFF"/><stop offset="0.4" stop-color="#FFFFFF"/><stop offset="0.5025" stop-color="#FFFFFF"/><stop offset="0.65953" stop-color="#FFFFFF"/><stop offset="0.67" stop-color="#FFFFFF"/><stop offset="0.83" stop-color="#FFFFFF"/><stop offset="0.83" stop-color="#FFFFFF"/><stop offset="1" stop-color="#FFFFFF"/></linearGradient><linearGradient x1="881.75" y1="25.25" x2="1353.25" y2="496.75" gradientUnits="userSpaceOnUse" spreadMethod="reflect" id="fill11"><stop offset="0" stop-color="#EDEEF3"/><stop offset="0.15" stop-color="#FFFFFF"/><stop offset="0.335" stop-color="#FFFFFF"/><stop offset="0.4" stop-color="#FFFFFF"/><stop offset="0.5025" stop-color="#FFFFFF"/><stop offset="0.65953" stop-color="#FFFFFF"/><stop offset="0.67" stop-color="#FFFFFF"/><stop offset="0.83" stop-color="#FFFFFF"/><stop offset="0.83" stop-color="#FFFFFF"/><stop offset="1" stop-color="#FFFFFF"/></linearGradient><linearGradient x1="1379.25" y1="13.75" x2="1869.75" y2="504.25" gradientUnits="userSpaceOnUse" spreadMethod="reflect" id="fill12"><stop offset="0" stop-color="#EDEEF3"/><stop offset="0.15" stop-color="#FFFFFF"/><stop offset="0.335" stop-color="#FFFFFF"/><stop offset="0.4" stop-color="#FFFFFF"/><stop offset="0.5025" stop-color="#FFFFFF"/><stop offset="0.65953" stop-color="#FFFFFF"/><stop offset="0.67" stop-color="#FFFFFF"/><stop offset="0.83" stop-color="#FFFFFF"/><stop offset="0.83" stop-color="#FFFFFF"/><stop offset="1" stop-color="#FFFFFF"/></linearGradient></defs><g clip-path="url(#clip6)"><rect x="0" y="0" width="1920" height="1080" fill="#FFFFFF"/><path d="M20 53.2267C20 33.2192 36.2192 17 56.2266 17L1863.77 17C1883.78 17 1900 33.2192 1900 53.2267L1900 1024.77C1900 1044.78 1883.78 1061 1863.77 1061L56.2266 1061C36.2192 1061 20 1044.78 20 1024.77Z" fill="#F4F4F7" fill-rule="evenodd"/><g filter="url(#fx0)" transform="translate(337 520)"><g><path d="M21.1422 50.8743C21.1422 34.4537 34.4537 21.1422 50.8742 21.1422L773.41 21.1422C789.831 21.1422 803.142 34.4537 803.142 50.8743L803.142 507.41C803.142 523.831 789.831 537.142 773.41 537.142L50.8742 537.142C34.4537 537.142 21.1422 523.831 21.1422 507.41Z" fill="#FF0000" fill-rule="evenodd"/></g></g><path d="M344 556.732C344 540.312 357.311 527 373.732 527L1096.27 527C1112.69 527 1126 540.312 1126 556.732L1126 1013.27C1126 1029.69 1112.69 1043 1096.27 1043L373.732 1043C357.311 1043 344 1029.69 344 1013.27Z" fill="url(#fill7)" fill-rule="evenodd"/><g filter="url(#fx1)" transform="translate(1157 520)"><g><path d="M21.1421 79.2028C21.1421 47.1368 47.1367 21.1422 79.2027 21.1422L699.081 21.1422C731.147 21.1422 757.142 47.1368 757.142 79.2028L757.142 479.081C757.142 511.147 731.147 537.142 699.081 537.142L79.2027 537.142C47.1367 537.142 21.1421 511.147 21.1421 479.081Z" fill="#FF0000" fill-rule="evenodd"/></g></g><path d="M1164 585.061C1164 552.995 1189.99 527 1222.06 527L1841.94 527C1874.01 527 1900 552.995 1900 585.061L1900 984.939C1900 1017.01 1874.01 1043 1841.94 1043L1222.06 1043C1189.99 1043 1164 1017.01 1164 984.939Z" fill="url(#fill8)" fill-rule="evenodd"/><g filter="url(#fx2)" transform="translate(356 14)"><g><path d="M21.1422 41.9406C21.1422 30.4539 30.4539 21.1421 41.9406 21.1421L498.344 21.1421C509.83 21.1421 519.142 30.4539 519.142 41.9406L519.142 480.344C519.142 491.83 509.83 501.142 498.344 501.142L41.9406 501.142C30.4539 501.142 21.1422 491.83 21.1422 480.344Z" fill="#FF0000" fill-rule="evenodd"/></g></g><path d="M363 41.7985C363 30.3118 372.312 21 383.798 21L840.202 21C851.688 21 861 30.3118 861 41.7985L861 480.201C861 491.688 851.688 501 840.202 501L383.798 501C372.312 501 363 491.688 363 480.201Z" fill="url(#fill9)" fill-rule="evenodd"/><g filter="url(#fx3)" transform="translate(-5 10)"><g><path d="M21.1421 35.9608C21.1421 27.7767 27.7767 21.1421 35.9608 21.1421L348.323 21.1421C356.508 21.1421 363.142 27.7767 363.142 35.9608L363.142 1048.32C363.142 1056.51 356.508 1063.14 348.323 1063.14L35.9608 1063.14C27.7767 1063.14 21.1421 1056.51 21.1421 1048.32Z" fill="#FF0000" fill-rule="evenodd"/></g></g><path d="M2 31.8186C2 23.6345 8.63455 17 16.8187 17L329.181 17C337.365 17 344 23.6345 344 31.8186L344 1044.18C344 1052.37 337.365 1059 329.181 1059L16.8187 1059C8.63455 1059 2 1052.37 2 1044.18Z" fill="url(#fill10)" fill-rule="evenodd"/><g filter="url(#fx4)" transform="translate(879 14)"><g><path d="M21.1422 41.2041C21.1422 30.1242 30.1242 21.1421 41.2041 21.1421L464.08 21.1421C475.16 21.1421 484.142 30.1242 484.142 41.2041L484.142 481.08C484.142 492.16 475.16 501.142 464.08 501.142L41.2041 501.142C30.1242 501.142 21.1422 492.16 21.1422 481.08Z" fill="#FF0000" fill-rule="evenodd"/></g></g><path d="M886 41.0619C886 29.982 894.982 21 906.062 21L1328.94 21C1340.02 21 1349 29.982 1349 41.0619L1349 480.938C1349 492.018 1340.02 501 1328.94 501L906.062 501C894.982 501 886 492.018 886 480.938Z" fill="url(#fill11)" fill-rule="evenodd"/><g filter="url(#fx5)" transform="translate(1367 12)"><g><path d="M21.1421 41.9405C21.1421 30.4539 30.4538 21.1421 41.9404 21.1421L501.344 21.1421C512.83 21.1421 522.142 30.4539 522.142 41.9405L522.142 480.344C522.142 491.83 512.83 501.142 501.344 501.142L41.9404 501.142C30.4538 501.142 21.1421 491.83 21.1421 480.344Z" fill="#FF0000" fill-rule="evenodd"/></g></g><path d="M1374 39.7983C1374 28.3117 1383.31 19 1394.8 19L1854.2 19C1865.69 19 1875 28.3117 1875 39.7983L1875 478.202C1875 489.688 1865.69 499 1854.2 499L1394.8 499C1383.31 499 1374 489.688 1374 478.202Z" fill="url(#fill12)" fill-rule="evenodd"/></g></svg>